<?xml version="1.0" encoding="utf-8"?>
<!-- Generator: Adobe Illustrator 19.1.0, SVG Export Plug-In . SVG Version: 6.00 Build 0)  -->
<svg version="1.1" id="Layer_1" xmlns="http://www.w3.org/2000/svg" xmlns:xlink="http://www.w3.org/1999/xlink" x="0px" y="0px"
	 viewBox="96 -220 882 564" style="enable-background:new 96 -220 882 564;" xml:space="preserve">
<style type="text/css">
	.st0{fill:#fff; opacity: 0.04;}
</style>
<path class="st0" d="M969.7,108.6c-1.9-3.3-48.4-81.4-124.3-160.7c-44.8-46.8-90.4-84.2-135.7-111.1
	c-57.5-34.1-114.6-51.4-169.7-51.4s-112.2,17.3-169.7,51.4c-45.3,26.9-91,64.3-135.7,111.1c-75.8,79.4-122.3,157.5-124.2,160.7
	c-3.4,5.8-2.1,13.1,2.7,17.4c8.8,14.5,44.6,69.4,111.1,121.2c2.5,2,5.5,2.9,8.5,2.9c4.1,0,8.2-1.8,11-5.3c4.7-6,3.6-14.8-2.4-19.5
	c-57.9-45-91.6-93.3-102.3-110.2c13.6-21.5,55.5-85,115.7-148c43-45,86.7-80.8,129.8-106.4c53.1-31.5,105.4-47.5,155.5-47.5
	c50,0,102.3,15.9,155.3,47.3C738.4-114,782-78.2,825-33.3c60.8,63.6,103.2,127.9,116.4,149c-10.1,15.1-41.4,58-95,99.1
	c-38.7,29.6-81.3,52.4-126.7,67.9c-55,18.7-114.4,26.6-176.5,23.5c-1-0.2-2-0.3-3-0.3c-110.2,0-199.8-89.6-199.8-199.8
	S429.8-93.8,540-93.8S739.8-4.2,739.8,106c0,1,0.1,2.1,0.3,3c-0.3,1.1-0.4,2.1-0.4,3.3c0,9.5-7.7,17.2-17.2,17.2
	s-17.2-7.7-17.2-17.2c0-1.1-0.1-2.1-0.4-3.1V61.6c0-1.2-0.2-2.3-0.4-3.4c-1.7-23.1-19.1-41.4-40.4-41.4c-22.4,0-40.6,20.2-40.6,45
	c0,1.1,0.2,2.2,0.4,3.3v118.1c-0.3,1.1-0.4,2.2-0.4,3.3c0,9.1-7.1,16.6-16.1,17.2c-0.4,0-0.8,0-1.2,0c-9.5,0-17.2-7.7-17.2-17.2
	c0-1.1-0.1-2.2-0.4-3.2c0.1-0.8,0.2-1.5,0.2-2.3V17.2c0-1.6-0.3-3.1-0.8-4.5C585.4-9.6,566.4-27,543.4-27c-24.8,0-45,20.2-45,45
	c0,1.1,0.1,2.1,0.4,3.2v136.2c0,0.2,0,0.4,0,0.6c-2,7.4-8.7,12.8-16.6,12.8c-9.5,0-17.2-7.7-17.2-17.2c0-0.8-0.1-1.6-0.2-2.3V83.9
	c0.1-0.8,0.2-1.5,0.2-2.3c0-24.8-18.2-45-40.6-45s-40.6,20.2-40.6,45c0,0.9,0.1,1.8,0.3,2.7c-0.2,1-0.3,2-0.3,3.1v15.3
	c0,7.7,6.1,13.9,14,13.9s14-6.2,14-13.9V87.4c0-1.1-0.1-2.2-0.4-3.3c0.1-0.8,0.2-1.6,0.2-2.5c0-9.3,5.9-17.2,12.8-17.2
	c6,0,11.1,5.8,12.5,13.3c-0.1,0.5-0.1,1.1-0.1,1.6v76.3c0,1.8,0.4,3.6,1,5.2c3.5,21.4,22,37.8,44.4,37.8c24.8,0,45-20.2,45-45
	c0-1.1-0.1-2.2-0.4-3.2V18.6c0-1.1-0.1-2.2-0.4-3.2c1.3-8.2,8.4-14.6,17-14.6c9.5,0,17.2,7.7,17.2,17.2c0,0.8,0.1,1.6,0.2,2.3V181
	c0,1.3,0.2,2.6,0.5,3.8c-0.1,0.6-0.1,1.2-0.1,1.8c0,24.8,20.2,45,45,45c1,0,1.9,0,2.9-0.1c23.6-1.5,42.1-21.2,42.1-44.9
	c0-1-0.1-2.1-0.3-3V64.8c0.2-1,0.3-2,0.3-3c0-9.3,5.9-17.2,12.8-17.2s12.8,7.9,12.8,17.2c0,0.2,0,0.5,0,0.7v51.8
	c0,2.1,0.5,4.1,1.3,5.9c3.8,21,22.2,37,44.2,37c24.8,0,45-20.2,45-45c0-1-0.1-2.1-0.3-3c0.3-1.1,0.4-2.1,0.4-3.3
	c0-125.5-102.1-227.6-227.6-227.6S312.4-19.5,312.4,106c0,123.9,99.5,225,222.9,227.5c0.1,0,0.2,0,0.3,0c11.3,0.7,22.5,1,33.7,1
	c56,0,109.7-8.7,160-25.9c48.4-16.6,93.7-41,134.9-72.6c70.1-53.9,103.3-109.6,104.7-111.9c0.2-0.3,0.3-0.6,0.5-1
	C972.1,118.9,972.4,113.3,969.7,108.6z"/>
</svg>
