<?xml version="1.0" encoding="utf-8"?>
<!-- Generator: Adobe Illustrator 16.0.0, SVG Export Plug-In . SVG Version: 6.00 Build 0)  -->
<!DOCTYPE svg PUBLIC "-//W3C//DTD SVG 1.1//EN" "http://www.w3.org/Graphics/SVG/1.1/DTD/svg11.dtd">
<svg version="1.1" id="Layer_1" xmlns="http://www.w3.org/2000/svg" xmlns:xlink="http://www.w3.org/1999/xlink" x="0px" y="0px"
	 width="1000px" height="1000px" viewBox="0 0 1000 1000" enable-background="new 0 0 1000 1000" xml:space="preserve">
<rect y="-2" fill="#231F20" width="1000" height="1004"/>
<path fill="#FFFFFF" d="M929.65,548.638c-1.943-3.285-48.437-81.386-124.258-160.726c-44.759-46.839-90.423-84.22-135.722-111.108
	C612.232,242.71,555.146,225.422,500,225.422c-55.147,0-112.234,17.288-169.673,51.382
	c-45.297,26.888-90.961,64.269-135.721,111.108c-75.819,79.34-122.313,157.441-124.255,160.726
	c-3.438,5.815-2.141,13.113,2.732,17.434c8.778,14.458,44.598,69.387,111.083,121.234c2.536,1.978,5.54,2.933,8.524,2.933
	c4.129,0,8.217-1.834,10.953-5.343c4.714-6.044,3.635-14.764-2.409-19.477c-57.801-45.076-91.491-93.468-102.26-110.325
	c13.561-21.514,55.503-85.019,115.697-148.008c43.015-45.013,86.694-80.816,129.822-106.416
	c53.094-31.515,105.412-47.494,155.506-47.494c50.014,0,102.251,15.93,155.258,47.347c43.078,25.533,86.711,61.252,129.689,106.165
	c60.824,63.566,103.192,127.931,116.422,148.957c-10.079,15.07-41.358,58.049-95.049,99.1
	c-38.692,29.581-81.332,52.421-126.734,67.879c-55.043,18.743-114.408,26.649-176.541,23.537c-0.98-0.22-1.997-0.346-3.045-0.346
	c-110.188,0-199.831-89.643-199.831-199.83S389.812,346.153,500,346.153c110.188,0,199.832,89.644,199.832,199.832
	c0,1.045,0.125,2.059,0.344,3.036c-0.256,1.054-0.406,2.147-0.406,3.279c0,9.488-7.719,17.208-17.207,17.208
	c-9.487,0-17.206-7.72-17.206-17.208c0-1.062-0.13-2.093-0.356-3.086v-47.636c0-1.168-0.156-2.297-0.423-3.381
	c-1.655-23.118-19.146-41.372-40.424-41.372c-22.367,0-40.564,20.168-40.564,44.958c0,1.139,0.152,2.24,0.411,3.3v118.083
	c-0.258,1.058-0.41,2.157-0.41,3.295c0,9.057-7.066,16.602-16.054,17.173c-0.382,0.023-0.765,0.035-1.153,0.035
	c-9.486,0-17.207-7.719-17.207-17.208c0-1.108-0.144-2.182-0.39-3.215c0.131-0.758,0.214-1.53,0.214-2.324V457.171
	c0-1.577-0.281-3.087-0.773-4.5c-2.625-22.31-21.638-39.678-44.641-39.678c-24.791,0-44.96,20.169-44.96,44.961
	c0,1.087,0.138,2.14,0.374,3.155V597.33c0,0.201,0.022,0.397,0.031,0.598c-1.957,7.352-8.652,12.791-16.613,12.791
	c-9.488,0-17.206-7.718-17.206-17.205c0-0.799-0.083-1.576-0.212-2.338v-67.403c0.129-0.762,0.212-1.539,0.212-2.338
	c0-24.792-18.197-44.961-40.565-44.961c-22.367,0-40.565,20.169-40.565,44.961c0,0.913,0.094,1.804,0.262,2.668
	c-0.218,0.987-0.343,2.011-0.343,3.065v15.266c0,7.664,6.053,13.877,14,13.877c7.948,0,14-6.213,14-13.877v-15.266
	c0-1.13-0.146-2.222-0.396-3.272c0.143-0.8,0.23-1.62,0.23-2.461c0-9.326,5.867-17.208,12.812-17.208
	c5.955,0,11.105,5.802,12.456,13.334c-0.062,0.528-0.103,1.062-0.103,1.607v76.325c0,1.847,0.375,3.606,1.042,5.218
	c3.456,21.381,22.036,37.762,44.376,37.762c24.791,0,44.962-20.168,44.962-44.959c0-1.096-0.14-2.155-0.38-3.178V458.559
	c0-1.112-0.147-2.188-0.399-3.224c1.268-8.246,8.39-14.587,16.985-14.587c9.487,0,17.207,7.719,17.207,17.207
	c0,0.788,0.081,1.554,0.207,2.306v160.662c0,1.312,0.198,2.576,0.545,3.779c-0.073,0.578-0.124,1.162-0.124,1.76
	c0,24.793,20.17,44.963,44.962,44.963c0.957,0,1.91-0.03,2.885-0.09c23.596-1.501,42.077-21.212,42.077-44.873
	c0-1.046-0.125-2.061-0.345-3.041v-118.6c0.219-0.979,0.344-1.992,0.344-3.037c0-9.326,5.867-17.204,12.811-17.204
	c6.944,0,12.811,7.878,12.811,17.204c0,0.235,0.023,0.464,0.035,0.696v51.831c0,2.121,0.478,4.122,1.316,5.92
	c3.758,21.021,22.162,37.032,44.246,37.032c24.793,0,44.962-20.17,44.962-44.963c0-1.045-0.125-2.06-0.344-3.038
	c0.255-1.053,0.405-2.146,0.405-3.277c0-125.491-102.095-227.585-227.586-227.585S272.414,420.493,272.414,545.984
	c0,123.911,99.545,225.001,222.865,227.525c0.11,0.009,0.216,0.029,0.327,0.036c11.303,0.688,22.519,1.032,33.65,1.032
	c55.967,0,109.665-8.692,160.036-25.942c48.362-16.561,93.74-40.986,134.872-72.603c70.11-53.887,103.34-109.562,104.72-111.905
	c0.185-0.313,0.343-0.634,0.5-0.955C932.11,558.903,932.404,553.297,929.65,548.638z"/>
</svg>
